<?xml version="1.0" encoding="utf-8"?>
<!-- Generator: Adobe Illustrator 23.0.2, SVG Export Plug-In . SVG Version: 6.00 Build 0)  -->
<svg version="1.1" id="Layer_1" xmlns="http://www.w3.org/2000/svg" xmlns:xlink="http://www.w3.org/1999/xlink" x="0px" y="0px"
	 viewBox="0 0 777.2 727.9" style="enable-background:new 0 0 777.2 727.9;" xml:space="preserve">
<style type="text/css">
	.st0{fill:url(#SVGID_1_);}
	.st1{fill:#FFFFFF;}
	.st2{fill:#F5F5F5;}
	.st3{fill:#FF5252;}
	.st4{fill:#FFFF00;}
	.st5{fill:#69F0AE;}
	.st6{fill:url(#SVGID_2_);}
	.st7{fill:#985454;}
	.st8{fill:#F8C198;}
	.st9{fill:#263238;}
	.st10{opacity:0.2;}
	.st11{opacity:0.2;fill:#FFFFFF;enable-background:new    ;}
	.st12{fill:#FCCC63;}
	.st13{fill:url(#SVGID_3_);}
	.st14{opacity:0.2;fill:#0469B9;enable-background:new    ;}
	.st15{fill:url(#SVGID_4_);}
	.st16{fill:url(#SVGID_5_);}
	.st17{fill:url(#SVGID_6_);}
	.st18{fill:url(#SVGID_7_);}
	.st19{fill:url(#SVGID_8_);}
	.st20{fill:url(#SVGID_9_);}
	.st21{fill:url(#SVGID_10_);}
	.st22{fill:#FF9800;}
	.st23{fill:url(#SVGID_11_);}
	.st24{fill:#0469B9;}
	.st25{fill:url(#SVGID_12_);}
	.st26{fill:url(#SVGID_13_);}
	.st27{opacity:0.2;enable-background:new    ;}
</style>
<title>photo sharing_1</title>
<g>
	
		<linearGradient id="SVGID_1_" gradientUnits="userSpaceOnUse" x1="388.6" y1="1870.0874" x2="388.6" y2="1398.8875" gradientTransform="matrix(1 0 0 1 0 -1270)">
		<stop  offset="0" style="stop-color:#808080;stop-opacity:0.25"/>
		<stop  offset="0.54" style="stop-color:#808080;stop-opacity:0.12"/>
		<stop  offset="1" style="stop-color:#808080;stop-opacity:0.1"/>
	</linearGradient>
	<rect x="36.5" y="128.9" class="st0" width="704.3" height="471.2"/>
	<rect x="44" y="133.8" class="st1" width="689.4" height="17.4"/>
	<rect x="44" y="151.2" class="st2" width="689.4" height="439.8"/>
	<circle class="st3" cx="57.9" cy="142.9" r="4.9"/>
	<circle class="st4" cx="71.1" cy="142.9" r="4.9"/>
	<circle class="st5" cx="84.6" cy="142.9" r="4.9"/>
	
		<linearGradient id="SVGID_2_" gradientUnits="userSpaceOnUse" x1="927.6865" y1="1567.6775" x2="927.6865" y2="1369.0026" gradientTransform="matrix(1 0 0 1 -244.61 -1368.89)">
		<stop  offset="0" style="stop-color:#808080;stop-opacity:0.25"/>
		<stop  offset="0.54" style="stop-color:#808080;stop-opacity:0.12"/>
		<stop  offset="1" style="stop-color:#808080;stop-opacity:0.1"/>
	</linearGradient>
	<path class="st6" d="M724,110.2c0.2-0.3,0.3-0.7,0.1-1.1c-2.7-6.2-5.4-4.6-13.4-22.4c-8.5-18.9-6.4-25.2-9.6-28.8
		c-1.3-1.4-2.5-6.2-4.3-7.1l-1.1-5.1c1,0.1,2-0.1,2.9-0.5c1.8-1.1,3.2-2.6,4.3-4.3c1.9-2.6,3.3-5.5,4.4-8.5c0.7-2.3,1.2-4.6,1.3-7
		l0,0c0-0.3,0-0.7,0-1l0,0c0-0.8,0-1.7-0.1-2.5c2-0.4,3.9-1.3,5.4-2.6c2-1.9,3.2-4.4,3.5-7.1l0,0c0-0.3,0.1-0.6,0.1-0.8s0-0.7,0-1
		c-0.1-3.3-1.7-6.4-4.3-8.4c-2.2-1.5-4.9-2.1-7.5-1.8c-2.6,0.4-5.2,1.1-7.6,2.1c-0.8,0.3-1.6,0.6-2.3,0.9c-1.8-0.7-3.6-1-5.5-1
		c-3.1,0.2-6.1,0.8-9,1.8l-9.9,3c-2.2,0.7-4.5,1.4-6.1,3.2c-0.2,0.2-0.4,0.4-0.5,0.7l-0.2,0.3c-0.1,0.2-0.2,0.3-0.3,0.5l-0.2,0.3
		c-0.1,0.1-0.1,0.3-0.2,0.4s-0.1,0.3-0.2,0.4l0,0c-0.1,0.5-0.2,1-0.2,1.4l0,0c0,0.2,0,0.5,0,0.7v0.2c0.1,0.8,0.3,1.5,0.8,2.1
		c0.6,0.7,1.3,1.3,2.2,1.7c1,0.5,2,0.9,3,1.3c-2,3.2-3,6.8-3,10.6c0,0.2,0,0.4,0,0.6s0,0.4,0,0.6c0,10.4,7.3,18.8,16.4,18.8h0.3
		l0.5,4.4c-2.3,2.7-4.1,5.8-5.6,9c-1.9,2.1-2.9,4.9-2.7,7.8c0,4.9,1.8,11.5,2.5,22.8c0,0.8,0.1,1.6,0.1,2.4c0,3.1-0.3,6.2-0.7,9.3
		c-0.2,0.1-0.4,0.2-0.5,0.3c-0.4,0.2-0.9,0.3-1.3,0.5c-0.9,0.3-1.8,0.4-2.7,0.5l-1.6,0.1c-1.6,0.1-3.2,0.3-4.7,0.6
		c-1.7,0.2-3.3,0.6-4.9,1.1c-0.9,0.4-1.7,1-2.3,1.8c-0.2,0.3-0.5,0.7-0.6,1.1c-0.1,0.2-0.2,0.4-0.3,0.6c-0.2,0.4-0.3,0.8-0.4,1.3
		c0,0.1-0.1,0.3-0.1,0.4c-1.5,0-3-0.2-4.5-0.5c-0.7-0.2-1.4-0.3-2.1-0.3c0.4-0.1,0.8-0.2,1.2-0.3c-6.7-1-10.4,4-10.4,9
		c-0.1,2.4,0.7,4.8,2.3,6.6c4.1,4.6,9,53,9,53h2v5.1c-8.3,0.6-16.7,1.8-16.7,4.1s1,4.4,2.7,5.9c-0.1-0.2-0.2-0.4-0.3-0.5
		c0.6,0.7,1.3,1.3,2.1,1.9h45.1v-10.6h0.1v-1.3c0,0-1.6,0-4.2,0v-4.6h2c1.8-18.9-6.2-43.4-7.9-48.4c2.8,0,5.8,0,8.7-0.2
		c12.4,0.6,33.8,0.5,38.1-7.7C729.8,116.8,726,111.9,724,110.2z M661.5,132.9c0,0,0.9,0.1,2.5,0.2c1.7,5.5,3,14.6,3.8,23.5
		C666.3,148.6,664.2,140.7,661.5,132.9L661.5,132.9z M679.6,49.1c1.1,0.3,2.3,0.4,3.4,0.4h0.1l0.1,0.9
		C682,50.2,680.8,49.7,679.6,49.1z M671.8,187h-0.3v-0.2c0,0-1.5,0-3.8,0v-4.6h4.1V187z"/>
	<rect x="660.1" y="177.7" class="st7" width="10.7" height="11.7"/>
	<rect x="674.3" y="177.7" class="st7" width="10.7" height="11.7"/>
	<ellipse class="st8" cx="684" cy="30.9" rx="14.2" ry="18.8"/>
	<polygon class="st8" points="697.3,57.9 685,57.9 683.1,39.2 693.8,39.2 	"/>
	<path class="st9" d="M704.5,109.6c0,0,7.1,4.7,1.8,16.4s-40.8,7-40.8,7s8.9,28.2,7.1,49.3h-14.2c0,0-4.3-48.4-7.8-53
		c-4.5-6-1.1-17.4,7.8-15.1S704.5,109.6,704.5,109.6z"/>
	<g class="st10">
		<path class="st1" d="M668.3,132.7c4.6,0.6,9.2,0.9,13.9,0.9c-4.6,0-9.2-0.2-13.8-0.6L668.3,132.7z"/>
		<path class="st1" d="M665.2,114.4c13.9-0.4,39.3-5.1,39.3-5.1c0.2,0.1,0.4,0.3,0.5,0.4C697.8,110.9,676,114.7,665.2,114.4z"/>
		<path class="st1" d="M657.5,113.7c-6,1.2-7.9,10.2-4.1,15.2c3.5,4.6,7.8,53,7.8,53h-2.9c0,0-4.3-48.4-7.8-53
			C646.2,123.2,649.2,112.2,657.5,113.7z"/>
	</g>
	<path class="st9" d="M674.3,187.1c0,0-28.4,0-28.4,4.7c0,2.8,1.3,5.4,3.5,7h24.9V187.1z"/>
	<path class="st11" d="M674,186.9v1.3c-5,0-27.5,0.5-27.5,4.7c0,1.6,0.4,3.2,1.3,4.6c-1.5-1.6-2.3-3.7-2.3-5.9
		C645.6,186.9,674,186.9,674,186.9z"/>
	<path class="st9" d="M718.8,109.6c0,0,7.1,4.7,1.8,16.4s-40.8,7-40.8,7s8.9,28.2,7.1,49.3h-14.3c0,0-1.8-49.3-7.1-54
		s-1.8-16.4,7.1-14.1S718.8,109.6,718.8,109.6z"/>
	<path class="st9" d="M688.5,187.1c0,0-28.4,0-28.4,4.7c0,2.8,1.3,5.4,3.5,7h24.9V187.1z"/>
	<path class="st12" d="M691.3,50.9h4.3c1.7,0,2.9,5.6,4.1,7.2c2.8,3.6,0.9,9.9,8.3,28.8c6.9,17.7,9.3,16.2,11.6,22.4
		s-41.8,5.9-41.8,5.9s2.2-11.9,1.8-20.6c-1-17.9-4.5-24.1,0.2-30.3C679.8,64.4,685,50.9,691.3,50.9z"/>
	<path class="st11" d="M684,13.4c0.5,0,1,0,1.5,0.1c-7.2,1-12.8,9-12.8,18.7s5.6,17.7,12.8,18.7c-0.5,0.1-1,0.1-1.5,0.1
		c-7.8,0-14.2-8.4-14.2-18.8S676.2,13.4,684,13.4z"/>
	<path class="st3" d="M668.5,10.4c1.4-1.8,3.4-2.5,5.3-3.2l8.6-3c2.5-1,5.1-1.7,7.8-1.8c1.6,0,3.3,0.3,4.8,1c0.6-0.4,1.3-0.7,2-0.9
		c2.1-1,4.3-1.7,6.6-2.1c2.3-0.3,4.7,0.3,6.6,1.8c2.3,2.2,3.7,5.2,3.8,8.4c0.2,3.3-0.9,6.5-3,8.9c-1.3,1.3-2.9,2.2-4.7,2.7
		c0.3,3.6-0.1,7.1-1,10.6c-0.9,3-2.2,5.9-3.8,8.5c-0.9,1.7-2.1,3.2-3.7,4.3c-1.5,1-3.5,0.7-4.7-0.8c-0.8-1.4-1.3-2.9-1.4-4.4
		c-0.9-6.3-1.8-13.6-6-17c-2.6-2.1-5.5-1.9-8.4-1.9c-2.7,0-5.3-0.8-7.5-2.3c-0.7-0.4-1.4-1-1.9-1.7
		C666.5,15.4,667.1,12.2,668.5,10.4z"/>
	<g class="st10">
		<path class="st1" d="M710.2,4.7c-1.8-1.5-4.2-2.1-6.5-1.8c-2.3,0.4-4.5,1.1-6.6,2.1c-0.7,0.3-1.4,0.6-2,0.9c-1.5-0.7-3.1-1-4.8-1
			c-2.7,0.2-5.3,0.8-7.8,1.8l-8.6,3c-1.9,0.7-3.9,1.4-5.3,3.2c-0.7,0.9-1.1,1.9-1.3,3c-0.4-2,0.1-4,1.3-5.6c1.4-1.8,3.4-2.5,5.3-3.2
			l8.6-3c2.5-1,5.1-1.7,7.8-1.8c1.6,0,3.3,0.3,4.8,1c0.6-0.4,1.3-0.7,2-0.9c2.1-1,4.3-1.7,6.6-2.1c2.3-0.3,4.7,0.4,6.5,1.8
			c2.3,2.2,3.7,5.2,3.8,8.4c0,0.6,0,1.2-0.1,1.8C713.8,9.4,712.5,6.7,710.2,4.7z"/>
		<path class="st1" d="M706.3,24.6c0,0.3,0,0.7,0,1C706.3,25.3,706.3,24.9,706.3,24.6L706.3,24.6z"/>
	</g>
	<path class="st11" d="M679.6,94.9c-1-17.9-4.5-24.1,0.2-30.3c0,0,5-13.4,11.5-13.4h4.3c0.5,0,1,0.5,1.4,1.3h-2.8
		c-6.4,0-11.5,13.4-11.5,13.4c-4.7,6.2-1.2,12.4-0.2,30.3c0.4,7-1,16-1.5,19.3H678C678,115.4,680.1,103.6,679.6,94.9z"/>
	<rect x="684.8" y="69.1" class="st12" width="15.5" height="14.1"/>
	<g class="st10">
		<path class="st1" d="M679.5,114.4c13.9-0.4,39.3-5.1,39.3-5.1c0.2,0.1,0.4,0.3,0.5,0.4C712,110.9,690,114.7,679.5,114.4z"/>
		<path class="st1" d="M671.8,113.7c-6.1,1.2-8,10.3-3.4,14.2c5.3,4.7,7.1,54,7.1,54h-3c0,0-1.8-49.3-7.1-54
			C660.3,123.4,663.5,112.2,671.8,113.7z"/>
		<path class="st1" d="M682.5,132.7c4.6,0.6,9.2,0.9,13.9,0.9c-4.6,0-9.2-0.2-13.8-0.6L682.5,132.7z"/>
	</g>
	<path class="st8" d="M699.2,79.1v22.4c0,8.1-5.1,14.6-11.3,14.3c-7.5-0.4-16.2-0.5-17.2,0.8c-0.8,1.1-2.8,3.2-4.7,5.1
		s-4.6,0-4.4-3.2c0.2-3.8,1.1-7.8,3.8-8.9c2.1-0.9,5.9-1.5,9.7-1.8c6.5-0.6,11.6-7.8,11.6-16.5V79.1H699.2z"/>
	<path class="st11" d="M661.8,118.6c0.2-3.8,1.1-7.8,3.8-8.9c2.1-0.9,5.9-1.5,9.7-1.8c6.5-0.6,11.6-7.8,11.6-16.5V79.1h12.4v1.3
		h-10.5v12.2c0,8.7-5.1,15.9-11.6,16.5c-3.8,0.3-7.6,0.9-9.7,1.8c-2.6,1.2-3.5,5.2-3.8,8.9c-0.1,0.9,0.2,1.9,0.7,2.7
		C662.8,122.4,661.5,120.8,661.8,118.6z"/>
	<path class="st11" d="M688.6,186.9v1.3c-5,0-27.5,0.5-27.5,4.7c0,1.6,0.5,3.2,1.3,4.6c-1.5-1.6-2.3-3.7-2.3-5.9
		C660.2,186.9,688.6,186.9,688.6,186.9z"/>
	
		<linearGradient id="SVGID_3_" gradientUnits="userSpaceOnUse" x1="422.4206" y1="1722.1373" x2="422.4206" y2="1551.7373" gradientTransform="matrix(1 -3.490651e-03 3.490651e-03 1 -237.8344 -1154.0363)">
		<stop  offset="0" style="stop-color:#808080;stop-opacity:0.25"/>
		<stop  offset="0.54" style="stop-color:#808080;stop-opacity:0.12"/>
		<stop  offset="1" style="stop-color:#808080;stop-opacity:0.1"/>
	</linearGradient>
	<polygon class="st13" points="115.2,396.5 264.8,396 265.3,566.3 115.9,566.9 	"/>
	
		<rect x="117.3" y="398.8" transform="matrix(1 -3.490630e-03 3.490630e-03 1 -1.6759 0.667)" class="st1" width="146" height="163.3"/>
	
		<rect id="b2ae9909-950a-48f1-9bb3-12cdfe841228" x="123.9" y="402.6" transform="matrix(1 -3.490630e-03 3.490630e-03 1 -1.6097 0.6659)" class="st14" width="132.2" height="117.8"/>
	
		<linearGradient id="SVGID_4_" gradientUnits="userSpaceOnUse" x1="621.1205" y1="1722.8309" x2="621.1205" y2="1552.4309" gradientTransform="matrix(1 -3.490651e-03 3.490651e-03 1 -237.8368 -1154.0363)">
		<stop  offset="0" style="stop-color:#808080;stop-opacity:0.25"/>
		<stop  offset="0.54" style="stop-color:#808080;stop-opacity:0.12"/>
		<stop  offset="1" style="stop-color:#808080;stop-opacity:0.1"/>
	</linearGradient>
	<polygon class="st15" points="313.9,396.5 463.4,396 464,566.3 314.5,566.9 	"/>
	
		<rect x="316" y="398.8" transform="matrix(1 -3.490630e-03 3.490630e-03 1 -1.6747 1.3606)" class="st1" width="146" height="163.3"/>
	
		<rect x="322.6" y="402.6" transform="matrix(1 -3.490630e-03 3.490630e-03 1 -1.6085 1.3595)" class="st14" width="132.2" height="117.8"/>
	
		<linearGradient id="SVGID_5_" gradientUnits="userSpaceOnUse" x1="819.8106" y1="1723.5145" x2="819.8106" y2="1553.1145" gradientTransform="matrix(1 -3.490651e-03 3.490651e-03 1 -237.8292 -1154.0262)">
		<stop  offset="0" style="stop-color:#808080;stop-opacity:0.25"/>
		<stop  offset="0.54" style="stop-color:#808080;stop-opacity:0.12"/>
		<stop  offset="1" style="stop-color:#808080;stop-opacity:0.1"/>
	</linearGradient>
	<polygon class="st16" points="512.6,396.5 662.1,396 662.8,566.3 513.2,566.9 	"/>
	
		<rect x="514.7" y="398.8" transform="matrix(1 -3.490630e-03 3.490630e-03 1 -1.6735 2.0542)" class="st1" width="146" height="163.3"/>
	
		<rect x="521.3" y="402.6" transform="matrix(1 -3.490630e-03 3.490630e-03 1 -1.6073 2.053)" class="st14" width="132.2" height="117.8"/>
	
		<linearGradient id="SVGID_6_" gradientUnits="userSpaceOnUse" x1="422.4449" y1="1514.5568" x2="422.4449" y2="1344.1567" gradientTransform="matrix(1 -3.490651e-03 3.490651e-03 1 -237.8344 -1154.0337)">
		<stop  offset="0" style="stop-color:#808080;stop-opacity:0.25"/>
		<stop  offset="0.54" style="stop-color:#808080;stop-opacity:0.12"/>
		<stop  offset="1" style="stop-color:#808080;stop-opacity:0.1"/>
	</linearGradient>
	<polygon class="st17" points="114.6,189 264,188.4 264.6,358.8 115.2,359.3 	"/>
	
		<rect x="116.6" y="191.2" transform="matrix(1 -3.490630e-03 3.490630e-03 1 -0.9512 0.6633)" class="st1" width="146" height="163.3"/>
	
		<rect x="123.2" y="195.1" transform="matrix(1 -3.490630e-03 3.490630e-03 1 -0.8854 0.6622)" class="st14" width="132.2" height="117.8"/>
	
		<linearGradient id="SVGID_7_" gradientUnits="userSpaceOnUse" x1="818.4474" y1="1512.4172" x2="818.4474" y2="1342.0172" gradientTransform="matrix(1 -3.490651e-03 3.490651e-03 1 -237.8292 -1154.0337)">
		<stop  offset="0" style="stop-color:#808080;stop-opacity:0.25"/>
		<stop  offset="0.54" style="stop-color:#808080;stop-opacity:0.12"/>
		<stop  offset="1" style="stop-color:#808080;stop-opacity:0.1"/>
	</linearGradient>
	<polygon class="st18" points="510.5,185.4 660,184.9 660.6,355.2 511.1,355.8 	"/>
	
		<rect x="512.6" y="187.7" transform="matrix(1 -3.490630e-03 3.490630e-03 1 -0.9366 2.0456)" class="st1" width="146" height="163.3"/>
	
		<rect x="519.2" y="191.5" transform="matrix(1 -3.490630e-03 3.490630e-03 1 -0.8704 2.0444)" class="st14" width="132.2" height="117.8"/>
	
		<linearGradient id="SVGID_8_" gradientUnits="userSpaceOnUse" x1="620.7874" y1="1513.7489" x2="620.7874" y2="1343.427" gradientTransform="matrix(1 -3.490651e-03 3.490651e-03 1 -237.8268 -1154.0337)">
		<stop  offset="0" style="stop-color:#808080;stop-opacity:0.25"/>
		<stop  offset="0.54" style="stop-color:#808080;stop-opacity:0.12"/>
		<stop  offset="1" style="stop-color:#808080;stop-opacity:0.1"/>
	</linearGradient>
	<polygon class="st19" points="312.8,187.5 462.4,187 462.9,357.3 313.4,357.8 	"/>
	
		<rect x="315" y="189.8" transform="matrix(1 -3.490630e-03 3.490630e-03 1 -0.9451 1.3559)" class="st1" width="146" height="163.3"/>
	
		<rect x="321.6" y="193.6" transform="matrix(1 -3.490630e-03 3.490630e-03 1 -0.879 1.3547)" class="st14" width="132.2" height="117.8"/>
	
		<linearGradient id="SVGID_9_" gradientUnits="userSpaceOnUse" x1="394.7" y1="1997.7875" x2="394.7" y2="1699.0875" gradientTransform="matrix(1 0 0 1 0 -1270)">
		<stop  offset="0" style="stop-color:#808080;stop-opacity:0.25"/>
		<stop  offset="0.54" style="stop-color:#808080;stop-opacity:0.12"/>
		<stop  offset="1" style="stop-color:#808080;stop-opacity:0.1"/>
	</linearGradient>
	<rect x="230.3" y="429.1" class="st20" width="328.7" height="298.7"/>
	<rect x="238.8" y="438.4" class="st1" width="314.4" height="279.5"/>
	
		<linearGradient id="SVGID_10_" gradientUnits="userSpaceOnUse" x1="259.85" y1="1740.9874" x2="259.85" y2="1716.1475" gradientTransform="matrix(1 0 0 1 0 -1270)">
		<stop  offset="0" style="stop-color:#808080;stop-opacity:0.25"/>
		<stop  offset="0.54" style="stop-color:#808080;stop-opacity:0.12"/>
		<stop  offset="1" style="stop-color:#808080;stop-opacity:0.1"/>
	</linearGradient>
	<circle class="st21" cx="259.8" cy="458.6" r="12.4"/>
	<circle class="st22" cx="259.8" cy="458.6" r="10.1"/>
	
		<linearGradient id="SVGID_11_" gradientUnits="userSpaceOnUse" x1="507.05" y1="1740.9675" x2="507.05" y2="1716.1274" gradientTransform="matrix(1 0 0 1 0 -1270)">
		<stop  offset="0" style="stop-color:#808080;stop-opacity:0.25"/>
		<stop  offset="0.54" style="stop-color:#808080;stop-opacity:0.12"/>
		<stop  offset="1" style="stop-color:#808080;stop-opacity:0.1"/>
	</linearGradient>
	<rect x="474.8" y="446.1" class="st23" width="64.4" height="24.8"/>
	<rect x="477.1" y="448.5" class="st2" width="60.5" height="20.2"/>
	<rect x="238.1" y="511.3" class="st24" width="315.2" height="133.5"/>
	
		<linearGradient id="SVGID_12_" gradientUnits="userSpaceOnUse" x1="395.65" y1="1931.1874" x2="395.65" y2="1764.9874" gradientTransform="matrix(1 0 0 1 0 -1270)">
		<stop  offset="0" style="stop-color:#808080;stop-opacity:0.25"/>
		<stop  offset="0.54" style="stop-color:#808080;stop-opacity:0.12"/>
		<stop  offset="1" style="stop-color:#808080;stop-opacity:0.1"/>
	</linearGradient>
	<circle class="st25" cx="395.6" cy="578.1" r="83.1"/>
	<circle class="st1" cx="395.6" cy="578.1" r="80.7"/>
	
		<linearGradient id="SVGID_13_" gradientUnits="userSpaceOnUse" x1="395.65" y1="1907.0874" x2="395.65" y2="1789.0874" gradientTransform="matrix(1 0 0 1 0 -1270)">
		<stop  offset="0" style="stop-color:#808080;stop-opacity:0.25"/>
		<stop  offset="0.54" style="stop-color:#808080;stop-opacity:0.12"/>
		<stop  offset="1" style="stop-color:#808080;stop-opacity:0.1"/>
	</linearGradient>
	<circle class="st26" cx="395.6" cy="578.1" r="59"/>
	<circle class="st24" cx="395.6" cy="578.1" r="57.4"/>
	<circle class="st24" cx="395.6" cy="579.7" r="34.2"/>
	<circle class="st27" cx="395.6" cy="579.7" r="34.2"/>
</g>
</svg>
