<?xml version="1.0" encoding="utf-8"?>
<!-- Generator: Adobe Illustrator 22.1.0, SVG Export Plug-In . SVG Version: 6.00 Build 0)  -->
<svg version="1.1" id="Layer_1" xmlns="http://www.w3.org/2000/svg" xmlns:xlink="http://www.w3.org/1999/xlink" x="0px" y="0px"
	 viewBox="0 0 1505.5 914.1" style="enable-background:new 0 0 1505.5 914.1;" xml:space="preserve">
<style type="text/css">
	.st0{fill:#A183F4;}
	.st1{fill:#A88BF7;}
	.st2{fill:#9B7DEC;}
	.st3{fill:#35C0A0;}
	.st4{fill:#55C9AF;}
	.st5{fill:#3AB99B;}
	.st6{fill:#FFFFFF;}
	.st7{fill:#3792C3;}
	.st8{fill:#EEEEF2;}
	.st9{clip-path:url(#SVGID_2_);}
	.st10{fill:#FAFAFC;}
	.st11{fill:#F48686;}
	.st12{fill:none;stroke:#DE8585;}
	.st13{fill:#F4E386;}
	.st14{fill:none;stroke:#E5D684;}
	.st15{fill:#78DBBD;}
	.st16{fill:none;stroke:#6CC4AA;}
</style>
<g transform="translate(-96.778 -107.891)">
	<path class="st0" d="M1163.1,487.7c76.7,32.9,119,205.4,226.9,149.2s173-136.5,118.1-221.3c-54.9-84.7-205.2,3.7-132.8-134.6
		s-269.4-143.7-298.9-20C1047,384.7,1086.3,454.8,1163.1,487.7z"/>
	<path class="st1" d="M1071.9,282.3c1.3-6.9,2.8-14,4.5-21.3c29-122,362.2-118.4,301.6,14.5c-36.8,19.8-94.8,32.5-160,32.5
		C1160.5,308.1,1108.6,298.2,1071.9,282.3z"/>
	<path class="st2" d="M1399.4,466.6c0-35.9,17.4-69.6,46.8-90.3c23.4,5.3,46.4,15.5,61.9,39.3c36.6,56.4,19.9,110.9-27.2,157.6
		C1432.8,560.1,1399.4,516.5,1399.4,466.6z"/>
	<path class="st3" d="M649.3,527.2c-60.4,128.7-50.1,124.7,10.8,191.1S511.7,983.6,363.4,954.1s43.5-163.9-85.5-237.9
		s-136.3-201.1-47.7-239s118,102.4,210.3,42S303.9,348,422.2,284.8S709.8,398.5,649.3,527.2z"/>
	<path class="st4" d="M230.5,477.5c41.7-17.8,70.2,3.8,98.4,25.4c21,16.1,41.7,32.1,67.5,32c0,0.6,0,1.2,0,1.8
		c0,84.2-65.5,154-149.6,159.2C148.6,620.8,149.7,512,230.5,477.5z"/>
	<path class="st5" d="M363.5,954.3c-9.7-1.8-19.2-4.7-28.3-8.5c43.1-110.4,176.3-192,335.9-197.4c-0.5,75.6-151,208.9-276.4,208.9
		C384.2,957.3,373.8,956.3,363.5,954.3z"/>
	<g transform="matrix(1, 0, 0, 1, 96.78, 107.89)">
		
			<image style="overflow:visible;opacity:0.1;" width="1083" height="779" xlink:href="C8050FE2DC0D7845.png"  transform="matrix(1 0 0 1 176.998 67.109)">
		</image>
		<g>
			<g>
				<path class="st6" d="M272.1,137.7h892c2.8,0,5,2.2,5,5v588c0,2.8-2.2,5-5,5h-892c-2.8,0-5-2.2-5-5v-588
					C267.1,140,269.4,137.7,272.1,137.7z"/>
			</g>
		</g>
	</g>
	<path class="st7" d="M767.9,471.6h95c14.4,0,26,11.6,26,26v95c0,14.4-11.6,26-26,26h-95c-14.4,0-26-11.6-26-26v-95
		C741.9,483.3,753.6,471.6,767.9,471.6z"/>
	<g transform="translate(988.04 159.608)">
		<g transform="translate(196 200)">
			<g transform="matrix(1, 0, 0, 1, -1087.26, -251.72)">
				<g>
					
						<image style="overflow:visible;opacity:0.1;" width="446" height="713" xlink:href="C8050FE2DC0D7847.png"  transform="matrix(1 0 0 1 945.998 207.111)">
					</image>
					<g>
						<path class="st6" d="M1075.7,809.7c-20.5,0-37.1-16.6-37.1-37.1c0,0,0,0,0,0V473.8c-1.4,0-2.5-1.1-2.5-2.5v-33.4
							c0-1.4,1.1-2.5,2.5-2.5v-9.9c-1.4,0-2.5-1.1-2.5-2.5v-33.4c0-1.4,1.1-2.5,2.5-2.5v-18.5c-1.4,0-2.5-1.1-2.5-2.5v-14.8
							c0-1.4,1.1-2.5,2.5-2.5v-34.6c0-20.5,16.6-37.1,37.1-37.1c0,0,0,0,0,0h185.9c20.5,0,37.1,16.6,37.1,37.1v85.8
							c1.4,0,2.5,1.1,2.5,2.5v55.6c0,1.4-1.1,2.5-2.5,2.5c0,0,0,0,0,0v311.9c0,20.5-16.6,37.1-37.1,37.1l0,0L1075.7,809.7z"/>
					</g>
				</g>
			</g>
			<path class="st8" d="M106.4,46.6c0-2,1.7-3.7,3.7-3.7c0,0,0,0,0,0c2,0,3.7,1.7,3.7,3.7c0,0,0,0,0,0c0,2-1.7,3.7-3.7,3.7
				C108.1,50.3,106.4,48.7,106.4,46.6z M66.9,48.5c-1,0-1.9-0.8-1.9-1.9c0-1,0.8-1.9,1.9-1.9c0,0,0,0,0,0h29c1,0,1.9,0.8,1.9,1.9
				l0,0c0,1-0.8,1.9-1.9,1.9c0,0,0,0,0,0H66.9z"/>
			<g>
				<defs>
					<path id="SVGID_1_" d="M172.5,542.6H-9.7c-13.6,0-24.7-11-24.7-24.7c0,0,0,0,0,0V65.8c0-13.6,11-24.7,24.7-24.7c0,0,0,0,0,0
						h23.5c1.7,0,3.1,1.3,3.1,3V46c0,7.5,6.1,13.6,13.6,13.6c0,0,0,0,0,0h103.1c6.8,0,12.3-5.5,12.4-12.3c0,0,0,0,0,0v-3.1
						c0-1.7,1.4-3.1,3.1-3.1h23.5c13.6,0,24.7,11,24.7,24.7c0,0,0,0,0,0v452.1C197.2,531.5,186.2,542.6,172.5,542.6
						C172.5,542.6,172.5,542.6,172.5,542.6L172.5,542.6z"/>
				</defs>
				<clipPath id="SVGID_2_">
					<use xlink:href="#SVGID_1_"  style="overflow:visible;"/>
				</clipPath>
				<g transform="translate(16.676 15.44)" class="st9">
					<rect x="-51.1" y="25.6" class="st10" width="231.6" height="501.5"/>
				</g>
			</g>
		</g>
	</g>
	<path class="st10" d="M368.9,245.6h892c2.8,0,5,2.2,5,5v55l0,0h-902l0,0v-55C363.9,247.9,366.2,245.6,368.9,245.6z"/>
	<g transform="translate(435 241)">
		<circle class="st11" cx="-42.1" cy="34.6" r="9"/>
		<circle class="st12" cx="-42.1" cy="34.6" r="8.5"/>
	</g>
	<g transform="translate(468 241)">
		<circle class="st13" cx="-42.1" cy="34.6" r="9"/>
		<circle class="st14" cx="-42.1" cy="34.6" r="8.5"/>
	</g>
	<g transform="translate(501 241)">
		<circle class="st15" cx="-42.1" cy="34.6" r="9"/>
		<circle class="st16" cx="-42.1" cy="34.6" r="8.5"/>
	</g>
	<path class="st8" d="M1225.2,267.7h19.2c0.9,0,1.6,0.7,1.6,1.6l0,0c0,0.9-0.7,1.6-1.6,1.6h-19.2c-0.9,0-1.6-0.7-1.6-1.6l0,0
		C1223.6,268.4,1224.3,267.7,1225.2,267.7z"/>
	<path class="st8" d="M1225.2,274.1h19.2c0.9,0,1.6,0.7,1.6,1.6l0,0c0,0.9-0.7,1.6-1.6,1.6h-19.2c-0.9,0-1.6-0.7-1.6-1.6l0,0
		C1223.6,274.8,1224.3,274.1,1225.2,274.1z"/>
	<path class="st8" d="M1225.2,280.4h19.2c0.9,0,1.6,0.7,1.6,1.6l0,0c0,0.9-0.7,1.6-1.6,1.6h-19.2c-0.9,0-1.6-0.7-1.6-1.6l0,0
		C1223.6,281.2,1224.3,280.4,1225.2,280.4z"/>
</g>
</svg>
